<?xml version="1.0" encoding="utf-8"?>
<!-- Generator: Adobe Illustrator 27.5.0, SVG Export Plug-In . SVG Version: 6.00 Build 0)  -->
<svg version="1.1" xmlns="http://www.w3.org/2000/svg" xmlns:xlink="http://www.w3.org/1999/xlink" x="0px" y="0px"
	 viewBox="0 0 500 500" style="enable-background:new 0 0 500 500;" xml:space="preserve">
<g id="Background_Simple">
	<g>
		<path style="fill:#92E3A9;" d="M471.36,285.209c-13.022,39.469-41.076,82.727-82.362,96.808
			c-62.38,21.283-67.954,72.444-181.171,72.094c-17.652-0.053-34.038-1.901-49.155-5.279c-8.127-1.815-15.889-4.082-23.276-6.756
			c-67.068-24.194-103.79-81.729-109.03-143.212c-6.905-80.863,48.125-121.66,83.985-145.688
			c35.861-24.028,76.749-113.344,188.052-113.875c16.969-0.074,33.968,1.589,50.524,5.398c37.793,8.677,76.68,29.597,100.039,61.475
			c1.754,2.395,3.433,4.85,5.048,7.356C485.52,162.552,489.117,231.4,471.36,285.209z"/>
		<path style="opacity:0.8;fill:#FFFFFF;" d="M471.36,285.209c-13.022,39.469-41.076,82.727-82.362,96.808
			c-62.38,21.283-67.954,72.444-181.171,72.094c-17.652-0.053-34.038-1.901-49.155-5.279c-8.127-1.815-15.889-4.082-23.276-6.756
			c-67.068-24.194-103.79-81.729-109.03-143.212c-6.905-80.863,48.125-121.66,83.985-145.688
			c35.861-24.028,76.749-113.344,188.052-113.875c16.969-0.074,33.968,1.589,50.524,5.398c37.793,8.677,76.68,29.597,100.039,61.475
			c1.754,2.395,3.433,4.85,5.048,7.356C485.52,162.552,489.117,231.4,471.36,285.209z"/>
	</g>
</g>
<g id="Mountains">
	<path style="opacity:0.3;" d="M473.616,351.303c-3.798-3.495-93.081-85.626-99.147-88.323c-2.042-0.9-10.979,2.473-22.267,7.515
		c-11.986,5.006-31.128,13.906-59.381,29.388c-6.024-4.854-83.32-67.06-91.49-69.246c-0.006-0.002-0.011-0.004-0.017-0.006
		c-0.008-0.002-0.02-0.007-0.028-0.009c-0.013-0.003-0.036,0-0.05-0.003c-0.035-0.005-0.07-0.009-0.107-0.007
		c-9.515-1.144-154.987,88.51-161.205,92.345c-0.235,0.146-0.308,0.453-0.163,0.688c0.145,0.234,0.451,0.306,0.688,0.163
		c2.686-1.657,5.651-3.48,8.845-5.44c0.122,0.103,0.286,0.15,0.45,0.11l28.551-7.614l-27.691,28.335
		c-0.169,0.173-0.19,0.442-0.05,0.639c0.096,0.136,0.25,0.211,0.408,0.211c0.072,0,0.144-0.016,0.212-0.047l136.73-63.987
		c0.226-0.105,0.339-0.361,0.267-0.599c-0.072-0.237-0.306-0.386-0.555-0.349l-37.501,5.819l51.18-49.212
		c9.165,3.13,90.153,68.387,91.151,69.192l22.217,19.525c0.094,0.082,0.212,0.124,0.33,0.124c0.104,0,0.21-0.033,0.299-0.1
		l41.427-30.905l-2.479,14.254c-0.043,0.246,0.102,0.485,0.339,0.561s0.495-0.033,0.604-0.258l19.303-39.937
		c8.868,5.498,97.541,87.069,98.453,87.909c0.097,0.088,0.218,0.132,0.339,0.132c0.135,0,0.27-0.055,0.368-0.161
		C473.832,351.807,473.819,351.49,473.616,351.303z"/>
</g>
<g id="Clouds">
	<g style="opacity:0.3;">
		<path style="fill:none;stroke:#000000;stroke-miterlimit:10;" d="M119.904,240.669c-2.47-11.096-15.26-19.366-26.408-17.781
			c-2.779,0.395-5.482,1.434-7.569,3.355c-2.847,2.619-2.171,5.592-3.581,8.837c-0.391,0.901-1.154,1.701-2.123,1.867
			c-2.772,0.475-5.006-2.288-7.814-2.309c-2.099-0.015-4.783,1.144-5.953,2.957c-1.09,1.688-0.33,4.633-2.293,5.754
			c-2.194,1.253-4.863-1.131-7.236-0.268c-2.948,1.072-1.608,3.216-2.68,4.556c-1.072,1.34-3.216,0.804-6.164,0.536
			c-2.948-0.268-5.36,3.216-5.36,3.216h92.991c0,0,0.804-1.34-2.68-6.7c-3.484-5.36-8.308-1.608-10.451-1.608
			C120.442,243.081,119.905,240.673,119.904,240.669z"/>
		<path style="fill:none;stroke:#000000;stroke-miterlimit:10;" d="M300.292,62.162c-3.886-17.46-24.011-30.472-41.553-27.979
			c-4.372,0.621-8.626,2.257-11.91,5.279c-4.479,4.121-3.417,8.799-5.635,13.906c-0.615,1.417-1.816,2.676-3.341,2.938
			c-4.363,0.748-7.878-3.601-12.295-3.633c-3.303-0.024-7.525,1.8-9.368,4.653c-1.715,2.656-0.52,7.29-3.607,9.054
			c-3.453,1.972-7.652-1.779-11.385-0.422c-4.638,1.687-2.53,5.06-4.217,7.169c-1.687,2.108-5.06,1.265-9.699,0.843
			c-4.638-0.422-8.434,5.06-8.434,5.06h146.322c0,0,1.265-2.108-4.217-10.542c-5.482-8.433-13.072-2.53-16.445-2.53
			C301.138,65.958,300.293,62.169,300.292,62.162z"/>
		<path style="fill:none;stroke:#000000;stroke-miterlimit:10;" d="M445.009,191.484c-2.47-11.096-15.26-19.366-26.408-17.781
			c-2.779,0.395-5.482,1.435-7.569,3.355c-2.847,2.619-2.171,5.592-3.581,8.837c-0.391,0.901-1.154,1.701-2.123,1.867
			c-2.772,0.475-5.006-2.288-7.814-2.309c-2.099-0.015-4.783,1.144-5.953,2.957c-1.09,1.688-0.33,4.633-2.293,5.754
			c-2.194,1.253-4.863-1.131-7.235-0.268c-2.948,1.072-1.608,3.216-2.68,4.556c-1.072,1.34-3.216,0.804-6.164,0.536
			c-2.948-0.268-5.36,3.216-5.36,3.216h92.991c0,0,0.804-1.34-2.68-6.7c-3.484-5.36-8.308-1.608-10.452-1.608
			C445.547,193.896,445.01,191.488,445.009,191.484z"/>
	</g>
</g>
<g id="Trees">
	<g>
		<path style="fill:#92E3A9;" d="M140.341,52.751c-55.574,0-100.626,44.745-100.626,99.942c0,25.591,9.689,48.931,25.616,66.611
			c7.287-1.056,20.568-1.782,35.247,3.211c19.452,6.617,31.574,17.46,34.228,19.992h9.017c2.654-2.533,14.776-13.375,34.228-19.992
			c15.982-5.437,30.312-4.093,37.046-2.926c16.08-17.714,25.871-41.168,25.871-66.896C240.967,97.496,195.915,52.751,140.341,52.751
			z"/>
		<path style="opacity:0.5;fill:#FFFFFF;" d="M140.341,52.751c-55.574,0-100.626,44.745-100.626,99.942
			c0,25.591,9.689,48.931,25.616,66.611c7.287-1.056,20.568-1.782,35.247,3.211c19.452,6.617,31.574,17.46,34.228,19.992h9.017
			c2.654-2.533,14.776-13.375,34.228-19.992c15.982-5.437,30.312-4.093,37.046-2.926c16.08-17.714,25.871-41.168,25.871-66.896
			C240.967,97.496,195.915,52.751,140.341,52.751z"/>
		<path style="fill:#7D7D7D;stroke:#7D7D7D;stroke-miterlimit:10;" d="M187.181,192.779c-3.095,1.497-6.164,3.046-9.192,4.661
			c-3.032,1.657-6.003,3.456-8.791,5.425c-1.053,0.728-2.081,1.481-3.109,2.234l16.483-30.707l-22.618,35.42
			c-2.291,1.844-4.543,3.725-6.752,5.644c-3.654,3.178-7.205,6.419-10.685,9.76l-1.149-33.314l23.664-36.032l-23.838,30.991
			l-1.028-29.816l-1.7,33.363l-0.005,0.007l0.005,0.003l-1.704,33.439c-3.023-2.86-6.096-5.656-9.25-8.4
			c-2.481-2.155-5.007-4.272-7.593-6.329l-21.399-36.544l15.717,32.237c-0.903-0.656-1.8-1.318-2.721-1.955
			c-2.787-1.969-5.758-3.769-8.79-5.425c-3.028-1.615-6.097-3.164-9.192-4.661c-6.2-2.974-12.517-5.758-19.041-8.056
			c6.338,2.684,12.414,5.831,18.35,9.153c2.963,1.671,5.89,3.388,8.77,5.168c2.835,1.794,5.561,3.691,8.15,5.784
			c5.214,4.127,10.084,8.633,14.772,13.284c4.096,4.067,8.082,8.275,11.881,12.544l-2.163,188.651h9.915l-1.404-186.927
			c4.248-4.863,8.768-9.654,13.416-14.269c4.688-4.651,9.558-9.157,14.771-13.284c2.59-2.093,5.316-3.991,8.151-5.784
			c2.88-1.78,5.808-3.497,8.77-5.168c5.936-3.322,12.012-6.469,18.349-9.153C199.699,187.021,193.382,189.805,187.181,192.779z"/>
	</g>
	<g>
		<path style="fill:#92E3A9;" d="M342.878,100.418c-48.348,0-87.541,38.927-87.541,86.945c0,22.263,8.429,42.568,22.285,57.949
			c6.339-0.919,17.893-1.55,30.663,2.794c16.922,5.757,27.468,15.189,29.777,17.392h7.845c2.309-2.203,12.855-11.636,29.777-17.392
			c13.904-4.73,26.37-3.561,32.228-2.546c13.989-15.41,22.507-35.815,22.507-58.197
			C430.419,139.344,391.226,100.418,342.878,100.418z"/>
		<path style="opacity:0.5;fill:#FFFFFF;" d="M342.878,100.418c-48.348,0-87.541,38.927-87.541,86.945
			c0,22.263,8.429,42.568,22.285,57.949c6.339-0.919,17.893-1.55,30.663,2.794c16.922,5.757,27.468,15.189,29.777,17.392h7.845
			c2.309-2.203,12.855-11.636,29.777-17.392c13.904-4.73,26.37-3.561,32.228-2.546c13.989-15.41,22.507-35.815,22.507-58.197
			C430.419,139.344,391.226,100.418,342.878,100.418z"/>
		<path style="fill:#7D7D7D;stroke:#7D7D7D;stroke-miterlimit:10;" d="M383.627,222.237c-2.693,1.302-5.362,2.65-7.997,4.055
			c-2.638,1.441-5.223,3.007-7.647,4.72c-0.916,0.633-1.81,1.288-2.705,1.943l14.34-26.714l-19.677,30.814
			c-1.993,1.604-3.952,3.241-5.874,4.91c-3.178,2.765-6.268,5.584-9.296,8.49l-0.999-28.982l20.587-31.346l-20.738,26.961
			l-0.895-25.939l-1.479,29.024l-0.005,0.006l0.004,0.003l-1.482,29.09c-2.629-2.488-5.303-4.921-8.047-7.308
			c-2.159-1.875-4.356-3.717-6.606-5.506l-18.616-31.792l13.673,28.045c-0.785-0.571-1.566-1.146-2.367-1.701
			c-2.425-1.713-5.01-3.279-7.647-4.72c-2.634-1.405-5.304-2.753-7.997-4.055c-5.394-2.587-10.889-5.009-16.565-7.008
			c5.514,2.335,10.799,5.073,15.964,7.963c2.577,1.453,5.124,2.948,7.63,4.496c2.466,1.56,4.838,3.211,7.091,5.032
			c4.536,3.59,8.772,7.51,12.851,11.556c3.564,3.538,7.031,7.199,10.336,10.913l-1.882,164.119h8.626l-1.221-162.619
			c3.695-4.23,7.628-8.398,11.671-12.413c4.078-4.046,8.315-7.966,12.851-11.556c2.253-1.821,4.624-3.472,7.091-5.032
			c2.506-1.548,5.053-3.043,7.63-4.496c5.164-2.89,10.45-5.628,15.963-7.963C394.517,217.228,389.021,219.65,383.627,222.237z"/>
	</g>
</g>
<g id="Fence">
	<g>
		<rect x="29.6" y="343.197" style="fill:#ABABAB;" width="451.57" height="12.797"/>
		<rect x="29.6" y="378.895" style="fill:#ABABAB;" width="451.57" height="12.797"/>
		<g>
			<rect x="66.078" y="329.053" style="fill:#ABABAB;" width="15.808" height="90.255"/>
			<rect x="187.013" y="329.053" style="fill:#ABABAB;" width="15.808" height="90.255"/>
			<rect x="307.948" y="329.053" style="fill:#ABABAB;" width="15.808" height="90.255"/>
			<rect x="428.883" y="329.053" style="fill:#ABABAB;" width="15.808" height="90.255"/>
		</g>
	</g>
</g>
<g id="Plants">
	<g>
		<path style="fill:#263238;" d="M439.21,387.012c1.086,0.474,3.741,0.414,3.743,0.414c0.028-0.001-0.571-1.738-0.621-1.844
			c-0.582-1.219-2.425-3.232-3.925-3.029c-1.08,0.146-1.681,1.227-1.437,2.244C437.219,385.836,438.285,386.607,439.21,387.012z"/>
		<path style="fill:#263238;" d="M440.126,394.704c1.126,0.164,3.496-0.523,3.685-0.579c0.374,1.327,0.866,2.658,1.437,3.977
			c0.326,0.755,0.678,1.505,1.04,2.252c-0.216-0.316-0.412-0.598-0.443-0.635c-0.884-1.022-3.193-2.476-4.585-1.885
			c-1.004,0.426-1.297,1.627-0.794,2.544c0.514,0.936,1.746,1.399,2.745,1.544c1.013,0.148,3.046-0.398,3.582-0.549
			c0.142,0.285,0.28,0.572,0.424,0.857c0.686,1.367,1.377,2.727,2.014,4.083c0.225,0.478,0.428,0.956,0.634,1.434
			c-0.192-0.281-0.357-0.516-0.385-0.55c-0.884-1.022-3.193-2.476-4.585-1.885c-1.003,0.426-1.297,1.627-0.793,2.544
			c0.515,0.936,1.746,1.399,2.745,1.544c0.967,0.141,2.847-0.346,3.485-0.522c0.196,0.496,0.393,0.992,0.56,1.482
			c0.107,0.337,0.233,0.654,0.321,0.998c0.095,0.339,0.188,0.674,0.281,1.007c0.155,0.646,0.319,1.312,0.454,1.947
			c0.098,0.44,0.182,0.862,0.269,1.287c-0.218-0.478-0.665-1.405-0.711-1.478c-0.719-1.144-2.781-2.931-4.247-2.558
			c-1.056,0.269-1.529,1.412-1.169,2.394c0.367,1.003,1.514,1.647,2.479,1.942c1.063,0.325,3.415,0.028,3.708-0.011
			c0.141,0.703,0.272,1.388,0.384,2.036c0.085,0.48,0.162,0.941,0.232,1.384h0.942c-0.089-0.493-0.186-1.009-0.294-1.549
			c-0.14-0.714-0.304-1.475-0.48-2.254c0.177-0.07,1.18-0.476,2.069-0.973c0.774,0.839,2.759,1.82,3.015,1.945
			c-0.27,0.664-0.539,1.307-0.803,1.91c-0.139,0.32-0.274,0.621-0.408,0.921h0.996c0.079-0.189,0.157-0.375,0.238-0.572
			c0.277-0.673,0.56-1.398,0.843-2.145c0.285,0.06,2.613,0.532,3.698,0.288c0.984-0.223,2.176-0.779,2.617-1.753
			c0.431-0.952,0.045-2.127-0.988-2.474c-1.434-0.482-3.623,1.147-4.425,2.234c-0.047,0.064-0.483,0.817-0.75,1.297
			c0.114-0.306,0.228-0.601,0.342-0.918c0.229-0.624,0.439-1.253,0.667-1.929c0.099-0.33,0.199-0.664,0.3-1.001
			c0.107-0.332,0.178-0.697,0.269-1.048c0.195-0.819,0.353-1.658,0.493-2.507c0.547,0.199,2.499,0.878,3.51,0.807
			c1.007-0.071,2.269-0.44,2.852-1.336c0.571-0.876,0.367-2.096-0.602-2.596c-1.345-0.693-3.755,0.585-4.713,1.538
			c-0.06,0.059-0.67,0.821-0.997,1.245c0.08-0.511,0.163-1.021,0.227-1.54c0.186-1.5,0.328-3.024,0.476-4.544
			c0.045-0.466,0.096-0.929,0.145-1.393c0.194,0.073,2.496,0.93,3.629,0.851c1.007-0.07,2.269-0.44,2.852-1.336
			c0.571-0.876,0.367-2.096-0.602-2.595c-1.345-0.694-3.755,0.585-4.713,1.538c-0.072,0.072-0.949,1.168-1.158,1.458
			c0.108-1.022,0.225-2.04,0.381-3.038c0.213-1.378,0.499-2.718,0.872-3.996c0.09,0.034,2.489,0.94,3.649,0.858
			c1.007-0.071,2.27-0.441,2.852-1.336c0.571-0.876,0.367-2.096-0.602-2.596c-1.345-0.693-3.755,0.585-4.713,1.538
			c-0.075,0.075-1.017,1.255-1.173,1.481c0.022-0.076,0.037-0.157,0.06-0.232c0.415-1.359,0.988-2.624,1.583-3.781
			c0.344-0.673,0.711-1.298,1.081-1.897c0.43,0.215,2.404,1.173,3.456,1.215c1.008,0.04,2.304-0.189,2.981-1.014
			c0.664-0.808,0.595-2.043-0.313-2.646c-1.261-0.837-3.797,0.169-4.853,1.011c-0.057,0.046-0.59,0.576-0.972,0.967
			c0.171-0.268,0.343-0.548,0.512-0.801c0.633-0.953,1.271-1.787,1.843-2.521c0.328-0.414,0.633-0.783,0.922-1.125
			c0.531-0.009,2.672-0.074,3.608-0.514c0.913-0.429,1.958-1.229,2.179-2.274c0.216-1.023-0.414-2.088-1.497-2.204
			c-1.504-0.162-3.292,1.899-3.841,3.134c-0.047,0.107-0.599,1.86-0.571,1.86c0,0,0.026,0,0.032,0
			c-0.285,0.323-0.586,0.673-0.908,1.062c-0.589,0.723-1.247,1.545-1.903,2.488c-0.658,0.941-1.347,1.981-1.973,3.143
			c-0.629,1.164-1.232,2.42-1.685,3.794c-0.005,0.016-0.009,0.032-0.014,0.048c0.008-0.443-0.012-1.683-0.024-1.778
			c-0.174-1.34-1.297-3.827-2.785-4.102c-1.072-0.198-1.979,0.642-2.065,1.684c-0.087,1.065,0.685,2.13,1.437,2.802
			c0.849,0.758,3.205,1.492,3.392,1.55c-0.42,1.313-0.744,2.694-0.995,4.11c-0.144,0.81-0.265,1.629-0.375,2.453
			c-0.006-0.383-0.013-0.726-0.02-0.774c-0.174-1.34-1.297-3.827-2.784-4.102c-1.072-0.198-1.98,0.642-2.065,1.684
			c-0.087,1.065,0.685,2.13,1.437,2.802c0.764,0.682,2.759,1.349,3.29,1.518c-0.039,0.316-0.081,0.632-0.119,0.948
			c-0.181,1.518-0.356,3.034-0.573,4.516c-0.076,0.522-0.17,1.034-0.263,1.546c-0.005-0.34-0.013-0.627-0.018-0.671
			c-0.174-1.34-1.297-3.827-2.784-4.102c-1.072-0.198-1.98,0.642-2.065,1.684c-0.087,1.064,0.685,2.13,1.438,2.802
			c0.728,0.651,2.565,1.283,3.195,1.487c-0.11,0.522-0.22,1.044-0.351,1.545c-0.097,0.34-0.167,0.673-0.283,1.009
			c-0.108,0.335-0.215,0.666-0.321,0.995c-0.228,0.625-0.458,1.271-0.695,1.875c-0.162,0.421-0.324,0.82-0.485,1.221
			c0.082-0.519,0.221-1.538,0.223-1.624c0.021-0.897-0.298-2.356-0.933-3.382c0.004-0.133-0.004-0.265-0.025-0.396
			c-0.166-1.033-1.136-1.8-2.189-1.519c-1.462,0.389-2.389,2.956-2.458,4.305c-0.004,0.08,0.048,0.948,0.09,1.496
			c-0.074-0.318-0.141-0.628-0.221-0.954c-0.153-0.647-0.326-1.287-0.508-1.978c-0.1-0.33-0.201-0.663-0.303-1
			c-0.094-0.336-0.236-0.679-0.353-1.022c-0.289-0.791-0.621-1.578-0.972-2.363c0.566-0.136,2.569-0.646,3.373-1.263
			c0.801-0.614,1.65-1.619,1.642-2.687c-0.007-1.046-0.85-1.951-1.934-1.833c-1.504,0.163-2.81,2.56-3.083,3.883
			c-0.017,0.083-0.106,1.054-0.145,1.589c-0.215-0.47-0.427-0.941-0.66-1.41c-0.672-1.354-1.395-2.704-2.11-4.053
			c-0.219-0.413-0.433-0.828-0.648-1.242c0.202-0.046,2.596-0.602,3.496-1.293c0.8-0.614,1.65-1.619,1.642-2.687
			c-0.008-1.046-0.85-1.951-1.934-1.833c-1.504,0.163-2.81,2.559-3.083,3.883c-0.021,0.1-0.147,1.498-0.161,1.855
			c-0.474-0.912-0.937-1.825-1.358-2.744c-0.582-1.267-1.083-2.542-1.477-3.814c0.094-0.021,2.595-0.59,3.517-1.298
			c0.801-0.614,1.65-1.619,1.642-2.687c-0.007-1.046-0.85-1.951-1.934-1.833c-1.504,0.163-2.809,2.56-3.082,3.883
			c-0.021,0.104-0.156,1.608-0.161,1.882c-0.023-0.076-0.056-0.151-0.078-0.227c-0.403-1.363-0.623-2.734-0.766-4.027
			c-0.085-0.751-0.123-1.474-0.145-2.178c0.477-0.058,2.652-0.348,3.552-0.893c0.863-0.523,1.818-1.428,1.927-2.491
			c0.107-1.04-0.631-2.033-1.721-2.035c-1.513-0.003-3.074,2.236-3.49,3.521c-0.023,0.07-0.174,0.806-0.277,1.344
			c-0.005-0.318-0.016-0.646-0.015-0.951c0.002-1.144,0.074-2.192,0.146-3.119c0.045-0.527,0.096-1.003,0.149-1.447
			c0.438-0.301,2.188-1.536,2.726-2.419c0.525-0.862,0.955-2.105,0.563-3.098c-0.384-0.973-1.496-1.513-2.465-1.013
			c-1.344,0.695-1.698,3.4-1.476,4.733c0.02,0.115,0.527,1.882,0.55,1.866c0,0,0.021-0.015,0.026-0.018
			c-0.059,0.427-0.118,0.885-0.171,1.387c-0.092,0.928-0.188,1.976-0.214,3.125c-0.03,1.148-0.03,2.396,0.088,3.71
			c0.117,1.317,0.307,2.697,0.687,4.094c0.004,0.016,0.011,0.032,0.015,0.047c-0.238-0.374-0.939-1.397-1.001-1.47
			c-0.884-1.022-3.192-2.476-4.585-1.885c-1.003,0.426-1.297,1.627-0.793,2.544C437.896,394.095,439.128,394.558,440.126,394.704z"
			/>
		<path style="fill:#263238;" d="M466.071,387.596c0.023,0.015,0.483-1.765,0.499-1.881c0.186-1.338-0.24-4.033-1.603-4.691
			c-0.981-0.474-2.079,0.096-2.436,1.079c-0.365,1.003,0.098,2.235,0.646,3.082C463.821,386.18,466.069,387.594,466.071,387.596z"/>
	</g>
	<g>
		<path style="fill:#263238;" d="M23.808,387.012c1.086,0.474,3.741,0.414,3.743,0.414c0.028-0.001-0.571-1.738-0.621-1.844
			c-0.582-1.219-2.425-3.232-3.925-3.029c-1.08,0.146-1.681,1.227-1.437,2.244C21.818,385.836,22.884,386.607,23.808,387.012z"/>
		<path style="fill:#263238;" d="M24.725,394.704c1.126,0.164,3.496-0.523,3.685-0.579c0.374,1.327,0.866,2.658,1.438,3.977
			c0.326,0.755,0.678,1.505,1.04,2.252c-0.216-0.316-0.412-0.598-0.443-0.635c-0.884-1.022-3.193-2.476-4.585-1.885
			c-1.004,0.426-1.297,1.627-0.794,2.544c0.514,0.936,1.746,1.399,2.745,1.544c1.013,0.148,3.045-0.398,3.581-0.549
			c0.142,0.285,0.281,0.572,0.424,0.857c0.686,1.367,1.377,2.727,2.014,4.083c0.225,0.478,0.428,0.956,0.634,1.434
			c-0.192-0.281-0.357-0.516-0.385-0.55c-0.884-1.022-3.193-2.476-4.585-1.885c-1.003,0.426-1.297,1.627-0.794,2.544
			c0.515,0.936,1.746,1.399,2.745,1.544c0.967,0.141,2.847-0.346,3.485-0.522c0.196,0.496,0.393,0.992,0.56,1.482
			c0.107,0.337,0.233,0.654,0.321,0.998c0.095,0.339,0.188,0.674,0.281,1.007c0.155,0.646,0.319,1.312,0.454,1.947
			c0.098,0.44,0.182,0.862,0.269,1.287c-0.218-0.478-0.665-1.405-0.711-1.478c-0.719-1.144-2.78-2.931-4.247-2.558
			c-1.056,0.269-1.529,1.412-1.169,2.394c0.367,1.003,1.514,1.647,2.479,1.942c1.063,0.325,3.415,0.028,3.708-0.011
			c0.141,0.703,0.271,1.388,0.384,2.036c0.085,0.48,0.162,0.941,0.232,1.384h0.942c-0.089-0.493-0.186-1.009-0.293-1.549
			c-0.14-0.714-0.304-1.475-0.48-2.254c0.177-0.07,1.18-0.476,2.069-0.973c0.774,0.839,2.759,1.82,3.015,1.945
			c-0.27,0.664-0.539,1.307-0.803,1.91c-0.139,0.32-0.274,0.621-0.408,0.921h0.996c0.079-0.189,0.157-0.375,0.238-0.572
			c0.277-0.673,0.56-1.398,0.843-2.145c0.285,0.06,2.613,0.532,3.698,0.288c0.984-0.223,2.176-0.779,2.617-1.753
			c0.431-0.952,0.045-2.127-0.988-2.474c-1.434-0.482-3.623,1.147-4.425,2.234c-0.047,0.064-0.483,0.817-0.75,1.297
			c0.114-0.306,0.228-0.601,0.342-0.918c0.229-0.624,0.439-1.253,0.667-1.929c0.099-0.33,0.199-0.664,0.3-1.001
			c0.107-0.332,0.178-0.697,0.269-1.048c0.195-0.819,0.353-1.658,0.493-2.507c0.547,0.199,2.499,0.878,3.51,0.807
			c1.007-0.071,2.269-0.44,2.852-1.336c0.571-0.876,0.367-2.096-0.602-2.596c-1.345-0.693-3.755,0.585-4.713,1.538
			c-0.06,0.059-0.67,0.821-0.997,1.245c0.08-0.511,0.163-1.021,0.227-1.54c0.186-1.5,0.328-3.024,0.476-4.544
			c0.045-0.466,0.096-0.929,0.145-1.393c0.194,0.073,2.496,0.93,3.629,0.851c1.007-0.07,2.269-0.44,2.852-1.336
			c0.571-0.876,0.367-2.096-0.602-2.595c-1.345-0.694-3.755,0.585-4.713,1.538c-0.072,0.072-0.949,1.168-1.158,1.458
			c0.108-1.022,0.225-2.04,0.381-3.038c0.213-1.378,0.499-2.718,0.872-3.996c0.09,0.034,2.489,0.94,3.649,0.858
			c1.007-0.071,2.269-0.441,2.852-1.336c0.571-0.876,0.367-2.096-0.602-2.596c-1.345-0.693-3.755,0.585-4.713,1.538
			c-0.075,0.075-1.017,1.255-1.173,1.481c0.022-0.076,0.037-0.157,0.06-0.232c0.415-1.359,0.988-2.624,1.583-3.781
			c0.344-0.673,0.711-1.298,1.081-1.897c0.43,0.215,2.404,1.173,3.456,1.215c1.008,0.04,2.304-0.189,2.981-1.014
			c0.664-0.808,0.595-2.043-0.313-2.646c-1.261-0.837-3.797,0.169-4.853,1.011c-0.057,0.046-0.59,0.576-0.972,0.967
			c0.171-0.268,0.343-0.548,0.512-0.801c0.633-0.953,1.271-1.787,1.843-2.521c0.328-0.414,0.633-0.783,0.922-1.125
			c0.531-0.009,2.672-0.074,3.608-0.514c0.913-0.429,1.958-1.229,2.179-2.274c0.216-1.023-0.414-2.088-1.497-2.204
			c-1.504-0.162-3.292,1.899-3.841,3.134c-0.047,0.107-0.599,1.86-0.571,1.86c0,0,0.026,0,0.032,0
			c-0.285,0.323-0.586,0.673-0.908,1.062c-0.589,0.723-1.247,1.545-1.903,2.488c-0.658,0.941-1.347,1.981-1.973,3.143
			c-0.629,1.164-1.232,2.42-1.685,3.794c-0.005,0.016-0.008,0.032-0.014,0.048c0.008-0.443-0.012-1.683-0.024-1.778
			c-0.174-1.34-1.297-3.827-2.785-4.102c-1.072-0.198-1.979,0.642-2.065,1.684c-0.087,1.065,0.685,2.13,1.437,2.802
			c0.849,0.758,3.205,1.492,3.392,1.55c-0.42,1.313-0.744,2.694-0.995,4.11c-0.144,0.81-0.265,1.629-0.375,2.453
			c-0.006-0.383-0.013-0.726-0.02-0.774c-0.174-1.34-1.296-3.827-2.784-4.102c-1.072-0.198-1.98,0.642-2.065,1.684
			c-0.087,1.065,0.685,2.13,1.437,2.802c0.764,0.682,2.76,1.349,3.29,1.518c-0.039,0.316-0.081,0.632-0.119,0.948
			c-0.182,1.518-0.356,3.034-0.573,4.516c-0.076,0.522-0.17,1.034-0.263,1.546c-0.005-0.34-0.013-0.627-0.018-0.671
			c-0.174-1.34-1.297-3.827-2.784-4.102c-1.072-0.198-1.98,0.642-2.065,1.684c-0.087,1.064,0.685,2.13,1.438,2.802
			c0.729,0.651,2.566,1.283,3.195,1.487c-0.11,0.522-0.22,1.044-0.35,1.545c-0.097,0.34-0.167,0.673-0.283,1.009
			c-0.108,0.335-0.215,0.666-0.321,0.995c-0.228,0.625-0.458,1.271-0.695,1.875c-0.162,0.421-0.324,0.82-0.485,1.221
			c0.082-0.519,0.221-1.538,0.223-1.624c0.021-0.897-0.298-2.356-0.932-3.382c0.004-0.133-0.004-0.265-0.025-0.396
			c-0.166-1.033-1.136-1.8-2.189-1.519c-1.462,0.389-2.389,2.956-2.458,4.305c-0.004,0.08,0.048,0.948,0.09,1.496
			c-0.074-0.318-0.141-0.628-0.221-0.954c-0.153-0.647-0.326-1.287-0.508-1.978c-0.1-0.33-0.201-0.663-0.303-1
			c-0.094-0.336-0.236-0.679-0.353-1.022c-0.289-0.791-0.621-1.578-0.972-2.363c0.566-0.136,2.569-0.646,3.373-1.263
			c0.801-0.614,1.65-1.619,1.642-2.687c-0.007-1.046-0.85-1.951-1.934-1.833c-1.504,0.163-2.81,2.56-3.083,3.883
			c-0.017,0.083-0.106,1.054-0.145,1.589c-0.215-0.47-0.427-0.941-0.66-1.41c-0.672-1.354-1.395-2.704-2.11-4.053
			c-0.219-0.413-0.433-0.828-0.648-1.242c0.202-0.046,2.596-0.602,3.496-1.293c0.8-0.614,1.65-1.619,1.642-2.687
			c-0.007-1.046-0.85-1.951-1.934-1.833c-1.504,0.163-2.81,2.559-3.083,3.883c-0.021,0.1-0.147,1.498-0.161,1.855
			c-0.474-0.912-0.937-1.825-1.358-2.744c-0.582-1.267-1.083-2.542-1.477-3.814c0.094-0.021,2.595-0.59,3.517-1.298
			c0.801-0.614,1.65-1.619,1.642-2.687c-0.007-1.046-0.85-1.951-1.934-1.833c-1.504,0.163-2.809,2.56-3.082,3.883
			c-0.021,0.104-0.156,1.608-0.161,1.882c-0.023-0.076-0.056-0.151-0.078-0.227c-0.403-1.363-0.623-2.734-0.765-4.027
			c-0.084-0.751-0.123-1.474-0.145-2.178c0.477-0.058,2.652-0.348,3.552-0.893c0.863-0.523,1.818-1.428,1.927-2.491
			c0.107-1.04-0.631-2.033-1.721-2.035c-1.513-0.003-3.074,2.236-3.49,3.521c-0.023,0.07-0.174,0.806-0.277,1.344
			c-0.005-0.318-0.016-0.646-0.015-0.951c0.002-1.144,0.074-2.192,0.146-3.119c0.045-0.527,0.096-1.003,0.149-1.447
			c0.438-0.301,2.187-1.536,2.726-2.419c0.525-0.862,0.955-2.105,0.563-3.098c-0.384-0.973-1.497-1.513-2.465-1.013
			c-1.344,0.695-1.698,3.4-1.476,4.733c0.019,0.115,0.527,1.882,0.55,1.866c0,0,0.021-0.015,0.026-0.018
			c-0.059,0.427-0.118,0.885-0.171,1.387c-0.092,0.928-0.188,1.976-0.214,3.125c-0.03,1.148-0.03,2.396,0.088,3.71
			c0.117,1.317,0.307,2.697,0.687,4.094c0.004,0.016,0.011,0.032,0.015,0.047c-0.238-0.374-0.939-1.397-1.001-1.47
			c-0.884-1.022-3.192-2.476-4.585-1.885c-1.003,0.426-1.297,1.627-0.793,2.544C22.495,394.095,23.727,394.558,24.725,394.704z"/>
		<path style="fill:#263238;" d="M50.669,387.596c0.023,0.015,0.483-1.765,0.499-1.881c0.186-1.338-0.24-4.033-1.603-4.691
			c-0.981-0.474-2.079,0.096-2.436,1.079c-0.365,1.003,0.098,2.235,0.646,3.082C48.42,386.18,50.668,387.594,50.669,387.596z"/>
	</g>
	<g>
		<path style="fill:#263238;" d="M470.706,405.162c0.476,0.208,1.639,0.181,1.64,0.181c0.012,0-0.25-0.762-0.272-0.808
			c-0.255-0.534-1.062-1.415-1.719-1.327c-0.473,0.064-0.736,0.537-0.629,0.983C469.835,404.647,470.301,404.985,470.706,405.162z"
			/>
		<path style="fill:#263238;" d="M471.108,408.531c0.493,0.072,1.531-0.229,1.614-0.253c0.164,0.581,0.379,1.164,0.63,1.742
			c0.143,0.331,0.297,0.659,0.456,0.987c-0.095-0.139-0.18-0.262-0.194-0.278c-0.387-0.448-1.398-1.085-2.008-0.826
			c-0.44,0.186-0.568,0.713-0.348,1.114c0.225,0.41,0.765,0.613,1.202,0.676c0.444,0.065,1.334-0.174,1.569-0.241
			c0.062,0.125,0.123,0.251,0.186,0.375c0.301,0.598,0.603,1.194,0.882,1.788c0.098,0.209,0.188,0.419,0.278,0.628
			c-0.084-0.123-0.156-0.226-0.169-0.241c-0.387-0.447-1.398-1.085-2.008-0.825c-0.44,0.187-0.568,0.713-0.348,1.114
			c0.225,0.41,0.765,0.613,1.202,0.676c0.424,0.062,1.247-0.151,1.526-0.229c0.086,0.217,0.172,0.435,0.245,0.649
			c0.047,0.148,0.102,0.286,0.141,0.437c0.042,0.148,0.082,0.296,0.123,0.441c0.068,0.283,0.14,0.575,0.199,0.853
			c0.043,0.193,0.08,0.378,0.118,0.564c-0.095-0.209-0.291-0.615-0.311-0.647c-0.315-0.501-1.218-1.284-1.86-1.12
			c-0.463,0.118-0.67,0.618-0.512,1.049c0.161,0.439,0.663,0.721,1.086,0.851c0.465,0.142,1.496,0.012,1.624-0.005
			c0.062,0.308,0.119,0.608,0.168,0.892c0.037,0.21,0.071,0.412,0.102,0.606h0.413c-0.039-0.216-0.082-0.442-0.129-0.678
			c-0.061-0.313-0.133-0.646-0.21-0.987c0.077-0.031,0.517-0.208,0.906-0.426c0.339,0.367,1.208,0.797,1.321,0.852
			c-0.118,0.291-0.236,0.572-0.352,0.837c-0.061,0.14-0.12,0.272-0.179,0.403h0.436c0.035-0.083,0.069-0.164,0.104-0.25
			c0.121-0.295,0.245-0.612,0.369-0.939c0.125,0.026,1.145,0.233,1.62,0.126c0.431-0.097,0.953-0.341,1.146-0.767
			c0.189-0.417,0.02-0.932-0.433-1.084c-0.628-0.211-1.587,0.502-1.938,0.978c-0.021,0.028-0.212,0.358-0.328,0.568
			c0.05-0.134,0.1-0.263,0.15-0.402c0.1-0.273,0.192-0.549,0.292-0.845c0.043-0.145,0.087-0.291,0.131-0.439
			c0.047-0.146,0.078-0.305,0.118-0.459c0.086-0.359,0.155-0.726,0.216-1.098c0.239,0.087,1.094,0.385,1.537,0.353
			c0.441-0.031,0.994-0.193,1.249-0.585c0.25-0.384,0.161-0.918-0.264-1.137c-0.589-0.304-1.645,0.256-2.064,0.674
			c-0.026,0.026-0.293,0.359-0.437,0.545c0.035-0.224,0.071-0.447,0.1-0.675c0.081-0.657,0.144-1.325,0.209-1.99
			c0.02-0.204,0.042-0.407,0.063-0.61c0.085,0.032,1.093,0.408,1.59,0.373c0.441-0.031,0.994-0.193,1.249-0.585
			c0.25-0.384,0.161-0.918-0.263-1.137c-0.589-0.304-1.645,0.256-2.064,0.674c-0.032,0.031-0.415,0.512-0.507,0.639
			c0.047-0.448,0.099-0.893,0.167-1.331c0.094-0.603,0.219-1.19,0.382-1.75c0.039,0.015,1.09,0.411,1.598,0.376
			c0.441-0.031,0.994-0.193,1.249-0.585c0.25-0.384,0.161-0.918-0.264-1.137c-0.589-0.304-1.645,0.256-2.064,0.673
			c-0.033,0.033-0.446,0.55-0.514,0.649c0.01-0.033,0.016-0.069,0.027-0.102c0.182-0.595,0.433-1.149,0.693-1.656
			c0.151-0.295,0.311-0.568,0.473-0.831c0.188,0.094,1.053,0.514,1.513,0.532c0.442,0.018,1.009-0.083,1.306-0.444
			c0.291-0.354,0.261-0.895-0.137-1.159c-0.552-0.367-1.663,0.074-2.126,0.443c-0.025,0.02-0.258,0.252-0.426,0.424
			c0.075-0.117,0.15-0.24,0.224-0.351c0.277-0.418,0.557-0.783,0.807-1.104c0.144-0.182,0.277-0.343,0.404-0.493
			c0.233-0.004,1.17-0.033,1.58-0.225c0.4-0.188,0.858-0.538,0.954-0.996c0.095-0.448-0.181-0.914-0.656-0.965
			c-0.659-0.071-1.442,0.832-1.682,1.373c-0.021,0.047-0.262,0.815-0.25,0.815c0,0,0.011,0,0.014,0
			c-0.125,0.142-0.257,0.295-0.398,0.465c-0.258,0.317-0.546,0.677-0.833,1.09c-0.288,0.412-0.59,0.868-0.864,1.376
			c-0.276,0.51-0.54,1.06-0.738,1.662c-0.002,0.007-0.004,0.014-0.006,0.021c0.003-0.194-0.005-0.737-0.011-0.779
			c-0.076-0.587-0.568-1.676-1.22-1.797c-0.469-0.087-0.867,0.281-0.905,0.738c-0.038,0.466,0.3,0.933,0.63,1.227
			c0.372,0.332,1.404,0.654,1.486,0.679c-0.184,0.575-0.326,1.18-0.436,1.8c-0.063,0.355-0.116,0.714-0.164,1.074
			c-0.003-0.168-0.006-0.318-0.009-0.339c-0.076-0.587-0.568-1.676-1.22-1.797c-0.469-0.087-0.867,0.281-0.904,0.738
			c-0.038,0.466,0.3,0.933,0.629,1.227c0.335,0.299,1.209,0.591,1.441,0.665c-0.017,0.138-0.036,0.277-0.052,0.415
			c-0.079,0.665-0.156,1.329-0.251,1.978c-0.033,0.229-0.074,0.453-0.115,0.677c-0.002-0.149-0.006-0.275-0.008-0.294
			c-0.076-0.587-0.568-1.676-1.22-1.797c-0.469-0.087-0.867,0.281-0.905,0.738c-0.038,0.466,0.3,0.933,0.63,1.227
			c0.319,0.285,1.124,0.562,1.399,0.651c-0.048,0.228-0.096,0.457-0.154,0.677c-0.042,0.149-0.073,0.295-0.124,0.442
			c-0.047,0.147-0.094,0.292-0.141,0.436c-0.1,0.274-0.201,0.557-0.304,0.821c-0.071,0.185-0.142,0.359-0.213,0.535
			c0.036-0.227,0.097-0.674,0.098-0.711c0.009-0.393-0.13-1.032-0.408-1.481c0.002-0.058-0.002-0.116-0.011-0.173
			c-0.073-0.452-0.498-0.788-0.959-0.665c-0.64,0.171-1.046,1.295-1.077,1.885c-0.002,0.035,0.021,0.415,0.039,0.655
			c-0.032-0.139-0.062-0.275-0.097-0.418c-0.067-0.283-0.143-0.564-0.222-0.866c-0.044-0.145-0.088-0.291-0.133-0.438
			c-0.041-0.147-0.103-0.297-0.155-0.448c-0.127-0.346-0.272-0.691-0.426-1.035c0.248-0.06,1.125-0.283,1.477-0.553
			c0.351-0.269,0.723-0.709,0.719-1.177c-0.003-0.458-0.372-0.855-0.847-0.803c-0.659,0.072-1.231,1.121-1.35,1.701
			c-0.008,0.036-0.046,0.462-0.064,0.696c-0.094-0.206-0.187-0.412-0.289-0.618c-0.294-0.593-0.611-1.184-0.924-1.775
			c-0.096-0.181-0.189-0.362-0.284-0.544c0.089-0.02,1.137-0.264,1.531-0.566c0.351-0.269,0.722-0.709,0.719-1.177
			c-0.003-0.458-0.372-0.854-0.847-0.803c-0.659,0.071-1.231,1.121-1.35,1.701c-0.009,0.044-0.064,0.656-0.071,0.812
			c-0.207-0.399-0.41-0.799-0.595-1.202c-0.255-0.555-0.474-1.113-0.647-1.67c0.041-0.009,1.136-0.258,1.54-0.568
			c0.351-0.269,0.723-0.709,0.719-1.177c-0.003-0.458-0.372-0.854-0.847-0.803c-0.659,0.072-1.23,1.121-1.35,1.701
			c-0.009,0.046-0.068,0.704-0.071,0.824c-0.01-0.033-0.025-0.066-0.034-0.099c-0.177-0.597-0.273-1.197-0.335-1.764
			c-0.037-0.329-0.054-0.646-0.063-0.954c0.209-0.026,1.161-0.152,1.556-0.391c0.378-0.229,0.796-0.626,0.844-1.091
			c0.047-0.456-0.276-0.89-0.754-0.891c-0.663-0.001-1.346,0.979-1.529,1.542c-0.01,0.031-0.076,0.353-0.121,0.588
			c-0.002-0.139-0.007-0.283-0.007-0.416c0.001-0.501,0.033-0.96,0.064-1.366c0.02-0.231,0.042-0.439,0.065-0.634
			c0.192-0.132,0.958-0.673,1.194-1.06c0.23-0.377,0.418-0.922,0.247-1.357c-0.168-0.426-0.656-0.663-1.079-0.444
			c-0.589,0.304-0.743,1.489-0.646,2.073c0.009,0.05,0.231,0.824,0.241,0.817c0,0,0.009-0.006,0.011-0.008
			c-0.026,0.187-0.051,0.388-0.075,0.607c-0.04,0.406-0.082,0.866-0.094,1.369c-0.013,0.503-0.013,1.049,0.039,1.625
			c0.051,0.577,0.135,1.182,0.301,1.793c0.002,0.007,0.005,0.014,0.007,0.021c-0.104-0.164-0.411-0.612-0.439-0.644
			c-0.387-0.448-1.398-1.085-2.008-0.826c-0.439,0.187-0.568,0.713-0.348,1.114C470.131,408.265,470.671,408.468,471.108,408.531z"
			/>
		<path style="fill:#263238;" d="M482.471,405.418c0.01,0.006,0.212-0.773,0.219-0.824c0.082-0.586-0.105-1.767-0.702-2.055
			c-0.43-0.208-0.91,0.042-1.067,0.473c-0.16,0.439,0.043,0.979,0.283,1.35C481.486,404.798,482.471,405.418,482.471,405.418z"/>
	</g>
	<g>
		<path style="fill:#263238;" d="M281.759,405.162c0.476,0.208,1.639,0.181,1.64,0.181c0.012,0-0.25-0.762-0.272-0.808
			c-0.255-0.534-1.062-1.415-1.719-1.327c-0.473,0.064-0.736,0.537-0.629,0.983C280.887,404.647,281.354,404.985,281.759,405.162z"
			/>
		<path style="fill:#263238;" d="M282.16,408.531c0.493,0.072,1.531-0.229,1.614-0.253c0.164,0.581,0.379,1.164,0.63,1.742
			c0.143,0.331,0.297,0.659,0.456,0.987c-0.095-0.139-0.18-0.262-0.194-0.278c-0.387-0.448-1.398-1.085-2.008-0.826
			c-0.44,0.186-0.568,0.713-0.348,1.114c0.225,0.41,0.765,0.613,1.202,0.676c0.444,0.065,1.334-0.174,1.569-0.241
			c0.062,0.125,0.123,0.251,0.186,0.375c0.301,0.598,0.603,1.194,0.882,1.788c0.098,0.209,0.188,0.419,0.277,0.628
			c-0.084-0.123-0.156-0.226-0.169-0.241c-0.387-0.447-1.398-1.085-2.008-0.825c-0.439,0.187-0.568,0.713-0.348,1.114
			c0.225,0.41,0.765,0.613,1.202,0.676c0.423,0.062,1.247-0.151,1.526-0.229c0.086,0.217,0.172,0.435,0.245,0.649
			c0.047,0.148,0.102,0.286,0.14,0.437c0.042,0.148,0.082,0.296,0.123,0.441c0.068,0.283,0.14,0.575,0.199,0.853
			c0.043,0.193,0.08,0.378,0.118,0.564c-0.095-0.209-0.291-0.615-0.311-0.647c-0.315-0.501-1.218-1.284-1.86-1.12
			c-0.463,0.118-0.67,0.618-0.512,1.049c0.161,0.439,0.663,0.721,1.086,0.851c0.465,0.142,1.496,0.012,1.624-0.005
			c0.062,0.308,0.119,0.608,0.168,0.892c0.037,0.21,0.071,0.412,0.102,0.606h0.413c-0.039-0.216-0.082-0.442-0.129-0.678
			c-0.061-0.313-0.133-0.646-0.21-0.987c0.077-0.031,0.517-0.208,0.906-0.426c0.339,0.367,1.208,0.797,1.321,0.852
			c-0.118,0.291-0.236,0.572-0.352,0.837c-0.061,0.14-0.12,0.272-0.179,0.403h0.436c0.035-0.083,0.069-0.164,0.104-0.25
			c0.121-0.295,0.245-0.612,0.369-0.939c0.125,0.026,1.145,0.233,1.62,0.126c0.431-0.097,0.953-0.341,1.146-0.767
			c0.189-0.417,0.02-0.932-0.433-1.084c-0.628-0.211-1.587,0.502-1.938,0.978c-0.021,0.028-0.212,0.358-0.328,0.568
			c0.05-0.134,0.1-0.263,0.15-0.402c0.1-0.273,0.192-0.549,0.292-0.845c0.043-0.145,0.087-0.291,0.131-0.439
			c0.047-0.146,0.078-0.305,0.118-0.459c0.086-0.359,0.155-0.726,0.216-1.098c0.24,0.087,1.094,0.385,1.537,0.353
			c0.441-0.031,0.994-0.193,1.249-0.585c0.25-0.384,0.161-0.918-0.264-1.137c-0.589-0.304-1.645,0.256-2.064,0.674
			c-0.026,0.026-0.294,0.359-0.437,0.545c0.035-0.224,0.071-0.447,0.1-0.675c0.082-0.657,0.144-1.325,0.209-1.99
			c0.02-0.204,0.042-0.407,0.063-0.61c0.085,0.032,1.093,0.408,1.59,0.373c0.441-0.031,0.994-0.193,1.249-0.585
			c0.25-0.384,0.161-0.918-0.263-1.137c-0.589-0.304-1.645,0.256-2.064,0.674c-0.031,0.031-0.415,0.512-0.507,0.639
			c0.047-0.448,0.099-0.893,0.167-1.331c0.093-0.603,0.219-1.19,0.382-1.75c0.039,0.015,1.09,0.411,1.598,0.376
			c0.441-0.031,0.994-0.193,1.249-0.585c0.25-0.384,0.161-0.918-0.263-1.137c-0.589-0.304-1.645,0.256-2.064,0.673
			c-0.033,0.033-0.446,0.55-0.514,0.649c0.01-0.033,0.016-0.069,0.026-0.102c0.182-0.595,0.433-1.149,0.693-1.656
			c0.151-0.295,0.311-0.568,0.474-0.831c0.188,0.094,1.053,0.514,1.513,0.532c0.442,0.018,1.009-0.083,1.306-0.444
			c0.291-0.354,0.261-0.895-0.137-1.159c-0.552-0.367-1.663,0.074-2.126,0.443c-0.025,0.02-0.258,0.252-0.426,0.424
			c0.075-0.117,0.15-0.24,0.224-0.351c0.277-0.418,0.557-0.783,0.807-1.104c0.144-0.182,0.277-0.343,0.404-0.493
			c0.233-0.004,1.17-0.033,1.58-0.225c0.4-0.188,0.858-0.538,0.954-0.996c0.095-0.448-0.181-0.914-0.656-0.965
			c-0.659-0.071-1.442,0.832-1.682,1.373c-0.021,0.047-0.262,0.815-0.25,0.815c0,0,0.011,0,0.014,0
			c-0.125,0.142-0.257,0.295-0.398,0.465c-0.258,0.317-0.546,0.677-0.833,1.09c-0.288,0.412-0.59,0.868-0.864,1.376
			c-0.276,0.51-0.539,1.06-0.738,1.662c-0.002,0.007-0.004,0.014-0.006,0.021c0.004-0.194-0.005-0.737-0.01-0.779
			c-0.076-0.587-0.568-1.676-1.22-1.797c-0.469-0.087-0.867,0.281-0.904,0.738c-0.038,0.466,0.3,0.933,0.63,1.227
			c0.372,0.332,1.404,0.654,1.486,0.679c-0.184,0.575-0.326,1.18-0.436,1.8c-0.063,0.355-0.116,0.714-0.164,1.074
			c-0.003-0.168-0.006-0.318-0.009-0.339c-0.076-0.587-0.568-1.676-1.22-1.797c-0.469-0.087-0.867,0.281-0.904,0.738
			c-0.038,0.466,0.3,0.933,0.629,1.227c0.334,0.299,1.209,0.591,1.441,0.665c-0.017,0.138-0.036,0.277-0.052,0.415
			c-0.079,0.665-0.156,1.329-0.251,1.978c-0.033,0.229-0.075,0.453-0.115,0.677c-0.002-0.149-0.006-0.275-0.008-0.294
			c-0.076-0.587-0.568-1.676-1.219-1.797c-0.47-0.087-0.867,0.281-0.905,0.738c-0.038,0.466,0.3,0.933,0.63,1.227
			c0.319,0.285,1.124,0.562,1.399,0.651c-0.048,0.228-0.096,0.457-0.154,0.677c-0.042,0.149-0.073,0.295-0.124,0.442
			c-0.047,0.147-0.094,0.292-0.141,0.436c-0.1,0.274-0.2,0.557-0.304,0.821c-0.071,0.185-0.142,0.359-0.212,0.535
			c0.036-0.227,0.097-0.674,0.097-0.711c0.009-0.393-0.13-1.032-0.408-1.481c0.002-0.058-0.002-0.116-0.011-0.173
			c-0.073-0.452-0.498-0.788-0.959-0.665c-0.64,0.171-1.047,1.295-1.077,1.885c-0.002,0.035,0.021,0.415,0.039,0.655
			c-0.032-0.139-0.062-0.275-0.097-0.418c-0.067-0.283-0.143-0.564-0.222-0.866c-0.044-0.145-0.088-0.291-0.133-0.438
			c-0.041-0.147-0.103-0.297-0.155-0.448c-0.127-0.346-0.272-0.691-0.426-1.035c0.248-0.06,1.125-0.283,1.477-0.553
			c0.351-0.269,0.723-0.709,0.719-1.177c-0.003-0.458-0.372-0.855-0.847-0.803c-0.659,0.072-1.231,1.121-1.35,1.701
			c-0.008,0.036-0.047,0.462-0.064,0.696c-0.094-0.206-0.187-0.412-0.289-0.618c-0.294-0.593-0.611-1.184-0.924-1.775
			c-0.096-0.181-0.19-0.362-0.284-0.544c0.089-0.02,1.137-0.264,1.531-0.566c0.351-0.269,0.723-0.709,0.719-1.177
			c-0.003-0.458-0.372-0.854-0.847-0.803c-0.659,0.071-1.231,1.121-1.35,1.701c-0.009,0.044-0.064,0.656-0.071,0.812
			c-0.208-0.399-0.411-0.799-0.595-1.202c-0.255-0.555-0.474-1.113-0.647-1.67c0.041-0.009,1.137-0.258,1.541-0.568
			c0.351-0.269,0.723-0.709,0.719-1.177c-0.003-0.458-0.372-0.854-0.847-0.803c-0.659,0.072-1.23,1.121-1.35,1.701
			c-0.01,0.046-0.069,0.704-0.071,0.824c-0.01-0.033-0.025-0.066-0.034-0.099c-0.176-0.597-0.273-1.197-0.335-1.764
			c-0.037-0.329-0.054-0.646-0.063-0.954c0.209-0.026,1.161-0.152,1.556-0.391c0.378-0.229,0.796-0.626,0.844-1.091
			c0.047-0.456-0.276-0.89-0.754-0.891c-0.663-0.001-1.346,0.979-1.529,1.542c-0.01,0.031-0.077,0.353-0.121,0.588
			c-0.002-0.139-0.007-0.283-0.006-0.416c0.001-0.501,0.033-0.96,0.064-1.366c0.02-0.231,0.042-0.439,0.065-0.634
			c0.192-0.132,0.958-0.673,1.194-1.06c0.23-0.377,0.418-0.922,0.246-1.357c-0.168-0.426-0.655-0.663-1.079-0.444
			c-0.589,0.304-0.744,1.489-0.646,2.073c0.009,0.05,0.231,0.824,0.241,0.817c0,0,0.009-0.006,0.012-0.008
			c-0.026,0.187-0.051,0.388-0.075,0.607c-0.04,0.406-0.082,0.866-0.094,1.369c-0.013,0.503-0.013,1.049,0.039,1.625
			c0.051,0.577,0.135,1.182,0.301,1.793c0.002,0.007,0.005,0.014,0.007,0.021c-0.104-0.164-0.411-0.612-0.439-0.644
			c-0.387-0.448-1.398-1.085-2.008-0.826c-0.439,0.187-0.568,0.713-0.348,1.114C281.184,408.265,281.723,408.468,282.16,408.531z"/>
		<path style="fill:#263238;" d="M293.524,405.418c0.01,0.006,0.212-0.773,0.219-0.824c0.081-0.586-0.105-1.767-0.702-2.055
			c-0.43-0.208-0.91,0.042-1.067,0.473c-0.16,0.439,0.043,0.979,0.283,1.35C292.538,404.798,293.523,405.418,293.524,405.418z"/>
	</g>
</g>
<g id="Truck">
	<g>
		<polygon style="fill:#263238;" points="214.038,331.072 221.625,331.072 220.571,396.61 210.667,396.61 		"/>
		<polygon style="fill:#263238;" points="85.303,385.457 149.928,385.457 157.109,394.432 332.52,394.432 417.918,394.432 
			417.918,358.53 90.688,358.53 		"/>
		<path style="fill:#263238;" d="M199.423,401.87c0,0,4.616-0.257,6.668-1.282c0.811-0.406,2.184-0.691,3.547-0.888
			c2.62-0.378,4.863-2.072,5.902-4.506l0.301-0.705h-17.443L199.423,401.87z"/>
		<path style="fill:#263238;" d="M181.933,403.733l17.49-1.864c0,0,1.539-0.769,0.769-3.334c-0.769-2.565-4.616-3.334-4.616-3.334
			l-13.848,0.513L181.933,403.733z"/>
		<path style="fill:#FFFFFF;stroke:#263238;stroke-miterlimit:10;" d="M200.389,399.786c-0.005-0.309-0.051-0.655-0.154-1.051
			l-14.66,0.954l-2.299,2.099"/>
		<path style="fill:#92E3A9;stroke:#263238;stroke-miterlimit:10;" d="M56.837,328.525l0.257,49.751c0,0,0.769,4.36,4.616,5.129
			c3.847,0.769,14.618,0.513,14.618,0.513l11.797-22.055c0,0,2.821-9.489,13.592-9.745c10.771-0.256,58.983,2.308,58.983,2.308
			s6.155,1.795,8.206,9.489c2.052,7.693,1.282,30.261,1.282,30.261l44.366,1.282l1.539-63.856L56.837,328.525z"/>
		
			<ellipse transform="matrix(0.9739 -0.2271 0.2271 0.9739 -79.3189 95.4504)" style="fill:#263238;" cx="375.091" cy="392.381" rx="26.927" ry="26.927"/>
		
			<ellipse transform="matrix(0.9737 -0.2277 0.2277 0.9737 -79.4773 95.693)" style="fill:#FFFFFF;stroke:#263238;stroke-miterlimit:10;" cx="375.091" cy="392.381" rx="21.542" ry="21.542"/>
		
			<ellipse transform="matrix(0.9736 -0.2284 0.2284 0.9736 -79.7044 96.0413)" style="fill:#B5B5B5;" cx="375.091" cy="392.381" rx="13.848" ry="13.848"/>
		<path style="fill:#D6D6D6;" d="M382.271,392.381c0-3.966-3.215-7.181-7.181-7.181c-3.966,0-7.181,3.215-7.181,7.181
			c0,3.966,3.215,7.181,7.181,7.181C379.057,399.561,382.271,396.347,382.271,392.381z"/>
		
			<ellipse transform="matrix(0.3827 -0.9239 0.9239 0.3827 -282.6242 361.7848)" style="fill:#263238;" cx="129.412" cy="392.381" rx="26.927" ry="26.927"/>
		
			<ellipse transform="matrix(0.7071 -0.7071 0.7071 0.7071 -239.5512 206.4341)" style="fill:#FFFFFF;stroke:#263238;stroke-miterlimit:10;" cx="129.412" cy="392.381" rx="21.542" ry="21.542"/>
		
			<ellipse transform="matrix(0.7071 -0.7071 0.7071 0.7071 -239.5512 206.4341)" style="fill:#B5B5B5;" cx="129.412" cy="392.381" rx="13.848" ry="13.848"/>
		<path style="fill:#D6D6D6;" d="M136.593,392.381c0-3.966-3.215-7.181-7.181-7.181s-7.181,3.215-7.181,7.181
			c0,3.966,3.215,7.181,7.181,7.181S136.593,396.347,136.593,392.381z"/>
		<path style="fill:#92E3A9;stroke:#263238;stroke-miterlimit:10;" d="M234.74,286.599c0,0-11.193,0.551-11.009,2.018
			c0.184,1.468,1.651,4.404,1.651,4.404l-7.156,36.881c0,0-1.284,7.34-1.284,11.009c0,3.67-1.101,53.578-1.101,53.578
			s0.734,2.569,4.22,2.936c3.486,0.367,111.56,2.018,111.56,2.018s2.569-0.918,5.688-4.587c3.119-3.67,17.982-22.569,35.413-27.89
			c17.431-5.321,29.908,1.835,34.128,5.688c4.22,3.853,4.771,17.798,5.321,20.55c0.551,2.752,5.505,2.936,6.605,2.936
			c1.101,0,7.706-0.734,9.174-2.752c1.468-2.018,2.202-8.257,2.202-9.358c0-1.101-0.918-2.752-0.918-2.752l4.954-20.917
			c0,0,1.101-4.037-0.184-4.954c-1.284-0.917-4.587-1.284-5.138-3.303c-0.55-2.018,2.202-5.871,0.184-8.807
			c-2.018-2.936-9.541-5.872-15.046-7.156c-5.505-1.284-37.615-3.67-37.615-3.67l-50.826-2.752l-12.844-19.449l-11.009-17.248
			c0,0,1.468-2.018-0.734-3.486c-2.202-1.468-8.44-2.018-20.734-2.936C267.951,285.681,234.74,286.599,234.74,286.599z"/>
		<path style="fill:#92E3A9;stroke:#263238;stroke-miterlimit:10;" d="M217.192,337.174l211.659,5.873
			c-2.258-2.851-9.497-5.659-14.846-6.907c-5.505-1.284-37.615-3.67-37.615-3.67l-41.556-2.25l-116.213-2.362l-0.397,2.044
			C218.226,329.901,217.566,333.682,217.192,337.174z"/>
		<path style="fill:#FFFFFF;stroke:#263238;stroke-miterlimit:10;" d="M300.978,289.534c-2.202-1.468-8.44-2.018-20.734-2.936
			c-12.294-0.918-45.505,0-45.505,0s-11.193,0.55-11.009,2.018c0.069,0.551,0.318,1.308,0.603,2.039h77.665
			C301.823,290.274,301.509,289.888,300.978,289.534z"/>
		<path style="fill:#FFFFFF;stroke:#263238;stroke-miterlimit:10;" d="M286.483,295.406l-34.862-0.367c0,0-4.771-0.367-6.422,5.321
			c-1.651,5.688-3.853,25.321-3.853,25.321s0,2.752,3.853,2.936s54.862,1.101,54.862,1.101s3.67,0,3.67-3.486
			s-11.927-28.624-11.927-28.624S291.07,294.305,286.483,295.406z"/>
		<path style="fill:#263238;" d="M245.198,328.617c3.853,0.184,54.862,1.101,54.862,1.101s3.67,0,3.67-3.486
			c0-2.033-4.054-11.423-7.435-18.903l-54.629,19.485C242.081,327.596,243.029,328.514,245.198,328.617z"/>
		<g>
			<path style="fill:#263238;" d="M300.06,329.67l-17.182-0.297l5.092-34.215l1.001,0.116c2.799,0.324,3.625,2.327,3.797,2.86
				c1.394,2.769,11.989,23.918,11.989,27.288C304.757,328.539,301.948,329.67,300.06,329.67z M285.23,327.482l14.848,0.257
				c0.419-0.005,2.627-0.139,2.627-2.316c0-2.233-7.255-17.46-11.828-26.533l-0.074-0.2c-0.025-0.093-0.249-0.807-1.105-1.225
				L285.23,327.482z"/>
		</g>
		<path style="fill:#FFFFFF;stroke:#263238;stroke-miterlimit:10;" d="M287.552,295.227l-5.148,34.167
			c0.837,0.016,1.661,0.031,2.466,0.046l5.109-33.91C289.379,295.262,288.588,295.119,287.552,295.227z"/>
		<path style="fill:#FFFFFF;stroke:#263238;stroke-miterlimit:10;" d="M312.721,310.268l-11.009-17.248c0,0-3.486-0.184-2.018,4.404
			c1.468,4.587,12.11,28.807,12.11,28.807s1.835,2.202,5.688,2.936c3.853,0.734,9.358,0.918,9.358,0.918l-0.018-0.298l-1.266-0.069
			L312.721,310.268z"/>
		<polygon style="fill:#263238;" points="56.869,334.698 215.929,338.379 216.092,331.602 56.837,328.525 		"/>
		<g>
			<path style="fill:#92E3A9;stroke:#263238;stroke-miterlimit:10;" d="M216.689,332.885c-0.012,0-0.025,0-0.037,0l-163.187-3.847
				c-0.849-0.02-1.521-0.725-1.5-1.575c0.02-0.85,0.746-1.488,1.573-1.503l163.187,3.847c0.849,0.02,1.521,0.725,1.501,1.575
				C218.206,332.219,217.521,332.885,216.689,332.885z"/>
		</g>
		<path style="fill:#92E3A9;stroke:#263238;stroke-miterlimit:10;" d="M65.813,393.407l19.234,3.847l8.976-28.209
			c0,0,1.282-5.385,13.079-6.668c11.797-1.282,34.108-1.282,42.827,1.282c8.719,2.564,9.745,9.745,11.027,17.439
			c1.282,7.693,0.513,18.977,2.564,20.259c2.052,1.282,14.361,0.256,16.669-0.257c2.308-0.513,4.873-32.056,4.103-39.75
			c-0.769-7.693-9.745-16.669-22.311-17.182c-12.566-0.513-50.008-1.539-66.677,0.769c-16.669,2.308-22.568,9.489-25.132,19.747
			C67.608,374.942,65.813,393.407,65.813,393.407z"/>
		<path style="fill:#263238;" d="M187.626,399.69c0,2.195-2.641,3.975-5.898,3.975c-3.258,0-5.898-1.78-5.898-3.975
			c0-2.195,2.641-3.975,5.898-3.975C184.986,395.715,187.626,397.494,187.626,399.69z"/>
		<path style="fill:#92E3A9;stroke:#263238;stroke-miterlimit:10;" d="M427.951,393.388c1.468-2.018,2.202-8.257,2.202-9.358
			c0-1.101-0.917-2.752-0.917-2.752l4.954-20.917c0,0,1.101-4.037-0.184-4.954c-0.642-0.459-1.789-0.78-2.844-1.239
			c-17.733-1.186-59.215-3.423-76.33,4.619c-18.57,8.726-37.917,34.038-42.552,40.355c11.508,0.182,19.341,0.302,19.341,0.302
			s2.569-0.917,5.688-4.587c3.119-3.67,17.982-22.569,35.413-27.89c17.431-5.321,29.908,1.835,34.128,5.688
			c4.22,3.853,4.771,17.798,5.321,20.551c0.55,2.752,5.505,2.936,6.605,2.936C419.877,396.14,426.483,395.406,427.951,393.388z"/>
		<path style="fill:#263238;" d="M299.438,345.194l-3.59,2.052l-78.966-2.278c-0.02,1.111-0.045,2.406-0.072,3.843l75.961,2.795
			l6.411-2.821l129.732,1.685c0.186-0.944,0.543-2.031,0.744-3.152L299.438,345.194z"/>
		<g>
			<path style="fill:#263238;" d="M310.171,398.278l-85.102-2.076l1.292-55.271c-0.234-0.601-0.982-3.224,1.898-7.063
				c2.737-3.65,5.437-6.065,6.09-6.629l4.587-29.053c-0.003-0.01,0.354-6.793,7.877-7.599c7.136-0.767,45.624,0.703,47.26,0.767
				l0.317,0.012l16.28,38.503c0.102,0.274,2.348,6.355,2.091,14.06c-0.253,7.61-2.542,53.401-2.565,53.863L310.171,398.278z
				 M226.092,395.227l83.129,2.027c0.247-4.97,2.301-46.182,2.539-53.359c0.251-7.497-1.997-13.595-2.02-13.656l-16.025-37.898
				c-3.791-0.143-40.07-1.479-46.796-0.76c-6.65,0.712-6.979,6.46-6.99,6.704l-4.651,29.478l-0.145,0.12
				c-0.03,0.025-3.072,2.58-6.075,6.584c-2.825,3.767-1.792,6.053-1.746,6.148l0.051,0.107l-0.001,0.124L226.092,395.227z"/>
		</g>
		<path style="fill:#FFFFFF;stroke:#263238;stroke-miterlimit:10;" d="M429.235,381.277c2.191,0,6.138-0.848,7.513,1.162
			c1.162,1.698,1.451,3.716,0.986,5.691l-1.529,5.559c-0.851,3.095-3.715,3.873-6.546,3.402c-1.279-0.213-2.558-0.426-3.836-0.638
			c-0.234-0.039-0.476-0.081-0.672-0.214c-1.319-0.891-1.117-5.348-0.971-6.646c0.171-1.52,0.628-3.001,1.381-4.335
			C426.08,384.339,428.044,381.277,429.235,381.277z"/>
		<g>
			
				<rect x="336.905" y="330.488" transform="matrix(1 -0.009 0.009 1 -3.0445 3.0653)" style="fill:#263238;" width="1" height="15.337"/>
		</g>
		<path style="fill:#8C8C8C;" d="M129.412,399.561c3.966,0,7.181-3.215,7.181-7.181c0-1.134-0.27-2.202-0.738-3.155l-12.834,6.417
			C124.21,397.967,126.622,399.561,129.412,399.561z"/>
		<path style="fill:#8C8C8C;" d="M375.091,399.561c3.966,0,7.181-3.215,7.181-7.181c0-1.177-0.289-2.285-0.791-3.265l-12.834,6.417
			C369.815,397.916,372.257,399.561,375.091,399.561z"/>
		<path style="fill:#263238;" d="M340.843,332.444l60.639,3.741c1.405,0.087,2.788,0.39,4.1,0.901l1.688,0.656l-66.224-4.279
			L340.843,332.444z"/>
		<path style="fill:#FFFFFF;" d="M355.13,360.236c0,0,6.336-3.083,16.783-4.795c10.447-1.713,25.004-1.199,25.004-1.199
			s-15.927,0.685-26.887,2.74C359.069,359.037,355.13,360.236,355.13,360.236z"/>
		<path style="fill:#FFFFFF;" d="M169.906,348.57c-0.025,0.38-2.305,0.538-5.092,0.354c-2.787-0.185-5.026-0.643-5.001-1.023
			c0.025-0.38,2.305-0.538,5.092-0.354C167.692,347.732,169.931,348.19,169.906,348.57z"/>
		<path style="fill:#FFFFFF;" d="M229.036,330.858c-0.025,0.38-2.305,0.539-5.092,0.354c-2.787-0.185-5.026-0.643-5.001-1.023
			c0.025-0.38,2.305-0.539,5.092-0.354C226.822,330.02,229.061,330.478,229.036,330.858z"/>
		<path style="fill:#FFFFFF;" d="M97.211,349.447c0.04,0.379-2.178,0.927-4.955,1.224c-2.777,0.297-5.062,0.232-5.102-0.147
			c-0.041-0.379,2.178-0.927,4.955-1.224C94.885,349.002,97.17,349.068,97.211,349.447z"/>
		<g>
			<path style="fill:#263238;" d="M238.862,334.423c0,0,2.906,1.539,6.326,1.539c3.419,0,4.787-2.223,4.787-2.223l1.539-0.342
				c0,0-1.368,2.223-3.248,3.077c-1.881,0.855-6.326,1.026-8.035,0.342c-1.71-0.684-3.419-1.881-3.419-1.881L238.862,334.423z"/>
			<path style="fill:#263238;" d="M239.717,333.227c0,0,0.513,2.052-0.684,2.564c-1.197,0.513-3.59-0.171-4.616-1.368
				c-1.026-1.197-0.171-2.736,2.564-2.736C239.717,331.688,239.717,333.227,239.717,333.227z"/>
			<path style="fill:#263238;" d="M233.904,332.714c0,0,9.745-2.052,18.464,0.342c0,0-1.197,0.684-2.393,0.684
				C248.778,333.739,231.34,333.739,233.904,332.714z"/>
		</g>
	</g>
</g>
<g id="Floor">
	<line style="fill:none;stroke:#263238;stroke-miterlimit:10;" x1="15.136" y1="419.308" x2="494.497" y2="419.308"/>
</g>
</svg>
